<svg xmlns="http://www.w3.org/2000/svg" xmlns:xlink="http://www.w3.org/1999/xlink" width="95" height="95" version="1.1" viewBox="0 0 95 95"><title>icon-tree</title><desc>Created with Sketch.</desc><defs><polygon id="path-1" points="0 94.716 94.858 94.716 94.858 0 0 0"/></defs><g id="Designs" fill="none" fill-rule="evenodd" stroke="none" stroke-width="1"><g id="Home-Page--Contour" transform="translate(-1033.000000, -1487.000000)"><g id="Use-Cases" transform="translate(250.000000, 1112.000000)"><g id="2" transform="translate(0.000000, 322.000000)"><g id="icon-tree" transform="translate(783.000000, 53.000000)"><path id="Fill-1" fill="#FFF" d="M30.8545,4.5253 C30.4865,4.5253 30.2235,4.7703 30.2235,5.1673 C30.2235,5.5553 30.4755,5.7753 30.8335,5.7753 L30.8435,5.7753 C31.2325,5.7753 31.4735,5.5373 31.4735,5.1503 C31.4735,4.7533 31.2215,4.5253 30.8545,4.5253"/><path id="Fill-3" fill="#FFF" d="M33.3545,4.5253 C32.9865,4.5253 32.7235,4.7703 32.7235,5.1673 C32.7235,5.5553 32.9755,5.7753 33.3335,5.7753 L33.3435,5.7753 C33.7325,5.7753 33.9735,5.5373 33.9735,5.1503 C33.9735,4.7533 33.7215,4.5253 33.3545,4.5253"/><path id="Fill-5" fill="#FFF" d="M35.8545,4.5253 C35.4865,4.5253 35.2235,4.7703 35.2235,5.1673 C35.2235,5.5553 35.4755,5.7753 35.8335,5.7753 L35.8435,5.7753 C36.2325,5.7753 36.4735,5.5373 36.4735,5.1503 C36.4735,4.7533 36.2215,4.5253 35.8545,4.5253"/><mask id="mask-2" fill="#fff"><use xlink:href="#path-1"/></mask><path id="Fill-7" fill="#FFF" d="M32.331,92.2159 L62.331,92.2159 L62.331,45.9629 L32.331,45.9629 L32.331,92.2159 Z M28.045,8.5939 L59.291,8.5939 L59.291,7.3439 L28.045,7.3439 L28.045,2.4999 L63.045,2.4999 L63.045,22.4999 L28.045,22.4999 L28.045,8.5939 Z M81.321,45.7639 L81.321,33.4059 L46.532,33.4059 L46.532,24.9999 L65.545,24.9999 L65.545,-0.0001 L25.545,-0.0001 L25.545,24.9999 L44.032,24.9999 L44.032,33.4059 L11.886,33.4059 L11.886,45.7639 L0,45.7639 L0,92.5279 L25,92.5279 L25,90.0279 L2.5,90.0279 L2.5,48.2639 L25,48.2639 L25,45.7639 L14.386,45.7639 L14.386,35.9059 L44.032,35.9059 L44.032,43.4629 L29.831,43.4629 L29.831,94.7159 L64.831,94.7159 L64.831,43.4629 L46.532,43.4629 L46.532,35.9059 L78.821,35.9059 L78.821,45.7639 L69.858,45.7639 L69.858,48.2639 L92.358,48.2639 L92.358,90.0279 L69.858,90.0279 L69.858,92.5279 L94.858,92.5279 L94.858,45.7639 L81.321,45.7639 Z" mask="url(#mask-2)"/><polygon id="Fill-9" fill="#FFF" points="37.331 83.272 57.331 83.272 57.331 80.772 37.331 80.772" mask="url(#mask-2)"/><polygon id="Fill-10" fill="#FFF" points="37.331 73.814 57.331 73.814 57.331 71.314 37.331 71.314" mask="url(#mask-2)"/><polygon id="Fill-11" fill="#FFF" points="37.331 64.609 57.331 64.609 57.331 62.109 37.331 62.109" mask="url(#mask-2)"/><polygon id="Fill-12" fill="#FFF" points="37.331 55.383 57.331 55.383 57.331 52.883 37.331 52.883" mask="url(#mask-2)"/><polygon id="Fill-13" fill="#FFF" points="7.367 85.508 24.867 85.508 24.867 83.008 7.367 83.008" mask="url(#mask-2)"/><polygon id="Fill-14" fill="#FFF" points="7.367 76.05 24.867 76.05 24.867 73.55 7.367 73.55" mask="url(#mask-2)"/><polygon id="Fill-15" fill="#FFF" points="7.367 66.846 24.867 66.846 24.867 64.346 7.367 64.346" mask="url(#mask-2)"/><polygon id="Fill-16" fill="#FFF" points="7.367 57.62 24.867 57.62 24.867 55.12 7.367 55.12" mask="url(#mask-2)"/><polygon id="Fill-17" fill="#FFF" points="69.913 85.508 87.413 85.508 87.413 83.008 69.913 83.008" mask="url(#mask-2)"/><polygon id="Fill-18" fill="#FFF" points="69.913 76.05 87.413 76.05 87.413 73.55 69.913 73.55" mask="url(#mask-2)"/><polygon id="Fill-19" fill="#FFF" points="69.913 66.846 87.413 66.846 87.413 64.346 69.913 64.346" mask="url(#mask-2)"/><polygon id="Fill-20" fill="#FFF" points="69.913 57.62 87.413 57.62 87.413 55.12 69.913 55.12" mask="url(#mask-2)"/><polygon id="Fill-21" fill="#FFF" points="51.263 19.959 44.613 16.12 45.863 13.955 52.513 17.794" mask="url(#mask-2)"/><polygon id="Fill-22" fill="#FFF" points="48.807 11.628 39.334 11.628 44.07 19.833" mask="url(#mask-2)"/></g></g></g></g></g></svg>